# xmcd CD database file
#
# Track frame offsets:
#	183
#	58470
#	107140
#	155058
#	220825
#
# Disc length: 3667 seconds
#
# Revision: 1
# Processed by: cddbd v1.5.1PL0 Copyright (c) Steve Scherf et al.
# Submitted via: CDex 1.51
#
DISCID=4a0e5105
DTITLE=Gonzalo Rubalcaba - Live in Havanna
DYEAR=1900
DGENRE=Jazz
TTITLE0=Green dolhin in the street
TTITLE1=Nueva Cubana
TTITLE2=Concatenacion heroica
TTITLE3=Pluma
TTITLE4=Pisando el Cesped
EXTD=
EXTT0=
EXTT1=
EXTT2=
EXTT3=
EXTT4=
PLAYORDER=
